<?xml version="1.0" standalone="no"?>
<!DOCTYPE svg PUBLIC "-//W3C//DTD SVG 20010904//EN"
 "http://www.w3.org/TR/2001/REC-SVG-20010904/DTD/svg10.dtd">
<svg version="1.0" xmlns="http://www.w3.org/2000/svg"
 width="893.000000pt" height="893.000000pt" viewBox="0 0 893.000000 893.000000"
 preserveAspectRatio="xMidYMid meet">
<metadata>
Created by potrace 1.11, written by Peter Selinger 2001-2013
</metadata>
<g transform="translate(0.000000,893.000000) scale(0.100000,-0.100000)"
fill="#000000" stroke="none">
<path d="M3825 8103 c-346 -124 -1158 -413 -1804 -643 -645 -231 -1175 -420
-1177 -422 -1 -2 121 -1082 274 -2400 l276 -2397 546 -302 c1116 -619 2496
-1382 2515 -1391 16 -7 70 18 280 135 409 227 2588 1433 2708 1500 59 32 107
65 107 72 0 7 124 1084 275 2395 151 1310 272 2386 269 2391 -3 5 -10 9 -15 9
-6 0 -709 249 -1562 554 -1794 641 -2035 726 -2051 725 -6 0 -294 -102 -641
-226z m300 -993 c585 -26 964 -109 1325 -290 491 -246 883 -705 1053 -1235 76
-237 114 -471 124 -760 18 -548 -113 -1038 -391 -1460 -222 -337 -478 -563
-838 -740 -280 -138 -538 -206 -953 -252 -187 -21 -1817 -32 -1841 -13 -12 11
-14 325 -14 2374 0 1824 3 2365 12 2374 15 15 1195 17 1523 2z"/>
<path d="M3262 4733 l3 -1798 445 1 c454 1 607 10 837 49 267 46 500 136 711
275 114 76 272 225 358 340 72 96 169 285 208 405 133 413 139 977 16 1395
-37 126 -121 304 -194 414 -203 304 -558 535 -981 636 -265 64 -465 80 -996
80 l-409 0 2 -1797z"/>
</g>
</svg>
